<svg viewBox="0 0 500 500" xmlns="http://www.w3.org/2000/svg" xmlns:xlink="http://www.w3.org/1999/xlink" width="16rem"
    height="16rem" aria-hidden="true" style="color: #f43f5e;">
    <g transform="matrix(0.9999999999999999, 0, 0, 0.9999999999999999, -2.842170943040401e-14, 0)">
        <title>Logo</title>
        <g>
            <title>Main</title>
            <line stroke="#f43f5e" stroke-width="22px" fill-opacity="0" fill="none" x1="255.925" y1="91.975"
                x2="249.819" y2="178.255"></line>
            <line stroke="#f43f5e" stroke-width="22px" fill-opacity="0" fill="none"
                style="transform-box:fill-box;transform-origin:50% 50%" x1="293.846" y1="302.535" x2="364.1" y2="344">
            </line>
            <path stroke="#f43f5e" fill-rule="evenodd" paint-order="fill" filter="none" stroke-miterlimit="30"
                stroke-linecap="square" stroke-width="22px" fill-opacity="0" fill="url('#gradient-3')"
                d="M 321.33 251.114 L 394.352 248.519 C 398.757 372.456 267.344 454.683 157.811 396.53 C 48.277 338.376 42.771 183.456 147.901 117.673 C 209.148 79.349 288.42 86.489 341.834 135.139 L 292.632 189.159">
            </path>
            <path stroke-miterlimit="4.7" fill-rule="nonzero" stroke-dashoffset="-14px" paint-order="fill" filter="none"
                fill="#f43f5e" stroke-width="22px" fill-opacity="0" stroke="#f43f5e"
                d="M 292.632 189.159 C 291.066 187.733 289.47 186.377 287.849 185.089 C 286.226 183.802 284.577 182.583 282.903 181.432 C 281.23 180.281 279.532 179.197 277.814 178.181 C 276.095 177.165 274.356 176.215 272.599 175.331 C 270.842 174.448 269.066 173.63 267.275 172.877 C 265.484 172.125 263.679 171.437 261.861 170.813 C 260.043 170.189 258.213 169.629 256.373 169.133 C 254.534 168.636 252.686 168.202 250.831 167.831 C 248.976 167.459 247.115 167.15 245.251 166.901 C 243.386 166.654 241.518 166.467 239.651 166.34 M 222.91 166.801 C 221.067 167.028 219.233 167.311 217.409 167.652 C 215.586 167.992 213.774 168.389 211.977 168.841 C 210.179 169.294 208.396 169.802 206.631 170.364 C 204.866 170.927 203.117 171.544 201.389 172.215 C 199.662 172.885 197.954 173.61 196.27 174.387 C 194.586 175.164 192.924 175.994 191.29 176.876 C 189.655 177.758 188.047 178.691 186.468 179.675 C 184.889 180.659 183.339 181.695 181.822 182.78 C 180.304 183.865 178.819 185 177.368 186.184 C 175.918 187.368 174.503 188.601 173.126 189.881 C 171.749 191.162 170.41 192.491 169.112 193.867 C 167.814 195.243 166.557 196.666 165.344 198.135 C 164.131 199.604 162.962 201.12 161.84 202.68 C 160.718 204.241 159.643 205.846 158.618 207.496 C 157.593 209.146 156.618 210.84 155.695 212.578 C 154.773 214.315 153.903 216.096 153.09 217.919 C 152.276 219.742 151.519 221.608 150.819 223.515 C 150.12 225.422 149.48 227.37 148.901 229.359 C 148.323 231.348 147.806 233.377 147.354 235.446 C 146.902 237.515 146.525 239.575 146.221 241.623 C 145.917 243.672 145.687 245.71 145.526 247.735 C 145.366 249.76 145.277 251.771 145.255 253.768 C 145.234 255.764 145.282 257.745 145.395 259.709 C 145.509 261.673 145.688 263.619 145.932 265.546 C 146.175 267.474 146.482 269.381 146.851 271.268 C 147.22 273.154 147.65 275.019 148.14 276.86 C 148.629 278.701 149.178 280.519 149.783 282.31 C 150.389 284.102 151.052 285.869 151.769 287.608 C 152.486 289.346 153.258 291.057 154.083 292.738 C 154.907 294.419 155.783 296.07 156.71 297.689 C 157.636 299.309 158.613 300.896 159.637 302.449 C 160.662 304.003 161.735 305.521 162.852 307.005 C 163.97 308.488 165.133 309.935 166.339 311.344 C 167.546 312.752 168.795 314.123 170.085 315.454 C 171.376 316.784 172.707 318.074 174.077 319.322 C 175.447 320.569 176.856 321.775 178.3 322.936 C 179.745 324.097 181.226 325.213 182.741 326.283 C 184.256 327.353 185.806 328.376 187.386 329.351 C 188.967 330.326 190.58 331.252 192.222 332.127 C 193.864 333.002 195.535 333.827 197.233 334.599 C 198.932 335.371 200.658 336.09 202.408 336.754 C 204.159 337.419 205.934 338.028 207.732 338.58 C 209.53 339.132 211.35 339.627 213.191 340.063 C 215.032 340.499 216.893 340.876 218.771 341.192 C 220.65 341.507 222.547 341.763 224.459 341.954 C 226.372 342.145 228.3 342.273 230.241 342.336 C 232.183 342.399 234.138 342.397 236.103 342.327 M 254.033 339.82 C 256.045 339.327 258.061 338.76 260.078 338.117 C 261.254 337.743 262.417 337.345 263.568 336.925 C 264.718 336.505 265.856 336.063 266.981 335.599 C 268.105 335.135 269.217 334.648 270.315 334.141 C 271.413 333.634 272.497 333.105 273.567 332.556 C 274.638 332.007 275.695 331.437 276.736 330.847 C 277.778 330.257 278.806 329.648 279.819 329.019 C 280.832 328.39 281.83 327.741 282.813 327.073 C 283.796 326.406 284.763 325.72 285.715 325.015 C 286.667 324.311 287.603 323.588 288.524 322.848 C 289.444 322.108 290.348 321.35 291.235 320.575 C 292.123 319.8 292.994 319.007 293.848 318.199 C 294.702 317.39 295.54 316.566 296.359 315.725 C 297.179 314.884 297.981 314.028 298.766 313.157 C 299.551 312.285 300.318 311.398 301.066 310.496 C 301.815 309.595 302.545 308.679 303.257 307.749 C 303.969 306.819 304.662 305.875 305.336 304.917 C 306.011 303.959 306.666 302.989 307.301 302.004 C 307.937 301.021 308.553 300.025 309.149 299.016 M 316.548 283.043 C 316.934 281.927 317.299 280.802 317.641 279.668 C 317.983 278.534 318.303 277.392 318.6 276.242 C 318.897 275.091 319.171 273.933 319.421 272.767 C 319.672 271.602 319.9 270.428 320.103 269.249 C 320.307 268.068 320.488 266.882 320.643 265.689 C 320.8 264.496 320.931 263.296 321.038 262.092 C 321.146 260.887 321.229 259.677 321.286 258.461 C 321.344 257.246 321.377 256.026 321.384 254.801 C 321.392 253.576 321.374 252.347 321.33 251.114">
            </path>
        </g>
        <g transform="matrix(0.39896, 0.153146, -0.153146, 0.39896, 412.844489, 359.250677)" id="Br-3yOTDEaBP83UML-jtr">
            <title>Stars</title>
            <g transform="matrix(-0.282771, 0.736641, -0.736641, -0.282771, -480.948371, -77.264627)"
                id="v_rOhgub5qGj28Tyw4pmT">
                <title>Inner star</title>
                <path stroke-width="0" stroke-dasharray="none" stroke-dashoffset="0" stroke-linejoin="miter"
                    stroke-miterlimit="4" fill-rule="nonzero" opacity="1" stroke="#f43f5e" fill="#f43f5e"
                    d="M -15.874 10.672 C -22.868 2.904 -22.24 -9.079 -14.471 -16.074 C -6.703 -23.069 5.28 -22.44 12.274 -14.672 C 19.269 -6.903 18.642 5.079 10.873 12.074 C 3.104 19.069 -8.879 18.441 -15.874 10.672 Z M 0 -128.015 L -25.604 -44.346 L -110.864 -64.008 L -51.206 0 L -110.864 64.008 L -25.603 44.346 L 0 128.015 L 25.603 44.346 L 110.864 64.008 L 51.206 0 L 110.864 -64.008 L 25.603 -44.346 L 0 -128.015 Z"
                    stroke-linecap="round"></path>
                <g transform="matrix(-0.347223, -0.385629, 0.385629, -0.347223, -105.223657, -1.790213)"
                    id="vBL0TyF1yPMQveZycDvgs">
                    <title>Balls</title>
                    <path stroke="#f43f5e" stroke-width="0" stroke-dasharray="none" stroke-dashoffset="0"
                        stroke-linejoin="miter" stroke-miterlimit="4" fill-rule="nonzero" opacity="1" fill="#f43f5e"
                        style="transform-box:fill-box;transform-origin:50% 50%"
                        d="M -282.158 263.574 C -262.012 263.574 -245.662 279.924 -245.662 300.07 C -245.662 320.216 -262.012 336.566 -282.158 336.566 C -302.304 336.566 -318.654 320.216 -318.654 300.07 C -318.654 279.924 -302.304 263.574 -282.158 263.574 Z"
                        stroke-linecap="round"></path>
                    <path stroke="#f43f5e" stroke-width="0" stroke-dasharray="none" stroke-dashoffset="0"
                        stroke-linejoin="miter" stroke-miterlimit="4" fill-rule="nonzero" opacity="1" fill="#f43f5e"
                        style="transform-box:fill-box;transform-origin:50% 50%"
                        d="M -334.571 72.923 C -314.425 72.923 -298.075 89.273 -298.075 109.419 C -298.075 129.565 -314.425 145.915 -334.571 145.915 C -354.717 145.915 -371.067 129.565 -371.067 109.419 C -371.067 89.273 -354.717 72.923 -334.571 72.923 Z"
                        stroke-linecap="round"
                        transform="matrix(0.884382, 0.466763, -0.466763, 0.884382, -0.000001, 0.000008)"></path>
                    <path stroke="#f43f5e" stroke-width="0" stroke-dasharray="none" stroke-dashoffset="0"
                        stroke-linejoin="miter" stroke-miterlimit="4" fill-rule="nonzero" opacity="1" fill="#f43f5e"
                        style="transform-box:fill-box;transform-origin:50% 50%"
                        d="M 69.583 158.847 C 89.729 158.847 106.079 175.197 106.079 195.343 C 106.079 215.489 89.729 231.839 69.583 231.839 C 49.437 231.839 33.087 215.489 33.087 195.343 C 33.087 175.197 49.437 158.847 69.583 158.847 Z"
                        stroke-linecap="round"
                        transform="matrix(0.36767, -0.929956, 0.929956, 0.36767, -0.000018, -0.000043)"></path>
                    <path stroke="#f43f5e" stroke-width="0" stroke-dasharray="none" stroke-dashoffset="0"
                        stroke-linejoin="miter" stroke-miterlimit="4" fill-rule="nonzero" opacity="1" fill="#f43f5e"
                        style="transform-box:fill-box;transform-origin:50% 50%"
                        d="M -4.671 -29.972 C 15.475 -29.972 31.825 -13.622 31.825 6.524 C 31.825 26.67 15.475 43.02 -4.671 43.02 C -24.817 43.02 -41.167 26.67 -41.167 6.524 C -41.167 -13.622 -24.817 -29.972 -4.671 -29.972 Z"
                        stroke-linecap="round"
                        transform="matrix(-0.496122, 0.868253, -0.868253, -0.496122, 0.000072, -0.000004)"></path>
                </g>
            </g>
            <path stroke="none" stroke-width="1" stroke-dasharray="none" stroke-dashoffset="0" stroke-linejoin="miter"
                stroke-miterlimit="4" fill="#f43f5e" fill-rule="nonzero" opacity="1"
                style="transform-box:fill-box;transform-origin:50% 50%"
                d="M -934.352 -234.133 L -920.742 -265.523 L -889.352 -279.133 L -920.742 -292.743 L -934.352 -324.133 L -947.962 -292.743 L -979.352 -279.133 L -947.962 -265.523 L -934.352 -234.133 Z"
                stroke-linecap="round" transform="matrix(0.927184, -0.374606, 0.374606, 0.927184, 0, 0)"></path>
            <path stroke="none" stroke-width="1" stroke-dasharray="none" stroke-dashoffset="0" stroke-linejoin="miter"
                stroke-miterlimit="4" fill="#f43f5e" fill-rule="nonzero" opacity="1"
                d="M -3.173 6.732 L 10.437 -24.658 L 41.827 -38.268 L 10.437 -51.878 L -3.173 -83.268 L -16.783 -51.878 L -48.173 -38.268 L -16.783 -24.658 L -3.173 6.732 Z"
                stroke-linecap="round"></path>
            <path stroke="none" stroke-width="1" stroke-dasharray="none" stroke-dashoffset="0" stroke-linejoin="miter"
                stroke-miterlimit="4" fill="#f43f5e" fill-rule="nonzero" opacity="1"
                style="transform-box:fill-box;transform-origin:50% 50%"
                d="M -269.883 -255.191 L -256.273 -286.582 L -224.883 -300.192 L -256.273 -313.802 L -269.883 -345.192 L -283.493 -313.802 L -314.883 -300.192 L -283.493 -286.582 L -269.883 -255.191 Z"
                stroke-linecap="round" transform="matrix(0.754711, -0.656058, 0.656058, 0.754711, -0.000008, 0.000024)">
            </path>
        </g>
    </g>
</svg>